<svg xmlns="http://www.w3.org/2000/svg" viewBox="0 0 1000.65 1000.65"><defs><style>.cls-1{font-size:98.94px;stroke:#fff;stroke-miterlimit:10;stroke-width:6px;font-family:Gilroy-Regular, Gilroy;}.cls-1,.cls-4{fill:#fff;}.cls-2{letter-spacing:-0.03em;}.cls-3{letter-spacing:0.01em;}</style></defs><title>KrupskayaLogo-Bold-02</title><g id="Layer_3" data-name="Layer 3"><text class="cls-1" transform="translate(259.91 782.33)">К<tspan class="cls-2" x="57.38" y="0">Р</tspan><tspan x="112.79" y="0">УПС</tspan><tspan class="cls-3" x="308.2" y="0">К</tspan><tspan x="366.57" y="0">АЯ</tspan></text><text/><path class="cls-4" d="M222.66,464.39h56.91l209-209a25,25,0,0,1,35.4,0l209,209h56.91a5,5,0,0,0,3.53-8.5L540.72,203.25l.07-.07L521,183.4a20.8,20.8,0,0,0-29.4,0l-19.88,19.81.06.07L219.14,455.89A5,5,0,0,0,222.66,464.39Z"/><path class="cls-4" d="M724.28,442.87V655.19A19.82,19.82,0,0,1,704.46,675H305.61a19.82,19.82,0,0,1-19.82-19.82V442.87H265.6V676.56a19.82,19.82,0,0,0,19.83,19.82H724.64a19.82,19.82,0,0,0,19.82-19.82V442.87Z"/><path class="cls-4" d="M441.32,508.49h22.05L569.62,402.23a4.49,4.49,0,0,1,6.33,0L682.21,508.49h22a4.65,4.65,0,0,0,3.29-7.94L589.43,382.43l0,0L575.2,368.14a3.36,3.36,0,0,0-4.76,0L556.12,382.4l0,0L438,500.55A4.65,4.65,0,0,0,441.32,508.49Z"/><polygon class="cls-4" points="676.56 500.2 676.56 676.11 469.02 676.11 469.02 500.2 459.46 500.2 459.46 692.3 686.11 692.3 686.11 500.2 676.56 500.2"/><path class="cls-4" d="M218,457.91a4.86,4.86,0,0,0,.65,4.4c.76,1.09,1.87,6,3.56,19.92l8.87-7.46,7.26,70.17,9.27-65.74,18,7.46V464.39Z"/><path class="cls-4" d="M397.53,592.14l2.05,12.06,3.83-6,3.28,17.7L412,592.14Z"/><path class="cls-4" d="M398.86,504.31H356.11a13.17,13.17,0,0,0-13.17,13.17V579a13.17,13.17,0,0,0,13.17,13.17H412V517.48A13.17,13.17,0,0,0,398.86,504.31Zm10.29,71A13.17,13.17,0,0,1,396,588.47H359a13.17,13.17,0,0,1-13.18-13.17V521.15A13.17,13.17,0,0,1,359,508h37a13.17,13.17,0,0,1,13.18,13.17Z"/><path class="cls-4" d="M400.55,528.46v39.47a9.61,9.61,0,0,1-9.59,9.66H364a9.67,9.67,0,0,1-9.66-9.66V528.46a9.66,9.66,0,0,1,9.66-9.58H391A9.6,9.6,0,0,1,400.55,528.46Z"/><path class="cls-4" d="M509.65,516.85h-23a5.73,5.73,0,0,0-5.73,5.73V555a5.73,5.73,0,0,0,5.73,5.73h23.32a5.45,5.45,0,0,0,5.45-5.45V522.58A5.74,5.74,0,0,0,509.65,516.85Zm4.28,36.3a5.73,5.73,0,0,1-5.72,5.73H488.05a5.73,5.73,0,0,1-5.73-5.73V524.42a5.72,5.72,0,0,1,5.73-5.73h20.16a5.72,5.72,0,0,1,5.72,5.73Z"/><path class="cls-4" d="M509.64,528.91v19.71a4.82,4.82,0,0,1-4.82,4.82H491.41a4.82,4.82,0,0,1-4.82-4.82V528.91a4.78,4.78,0,0,1,4.79-4.78h13.48A4.78,4.78,0,0,1,509.64,528.91Z"/><path class="cls-4" d="M559.74,516.85h-23a5.74,5.74,0,0,0-5.73,5.73V555a5.74,5.74,0,0,0,5.73,5.73H560a5.45,5.45,0,0,0,5.45-5.45V522.58A5.73,5.73,0,0,0,559.74,516.85Zm4.29,36.3a5.73,5.73,0,0,1-5.73,5.73H538.14a5.73,5.73,0,0,1-5.72-5.73V524.42a5.72,5.72,0,0,1,5.72-5.73H558.3a5.72,5.72,0,0,1,5.73,5.73Z"/><path class="cls-4" d="M559.74,528.91v19.71a4.82,4.82,0,0,1-4.83,4.82h-13.4a4.82,4.82,0,0,1-4.82-4.82V528.91a4.78,4.78,0,0,1,4.78-4.78H555A4.79,4.79,0,0,1,559.74,528.91Z"/><path class="cls-4" d="M608.84,516.86h-23a5.74,5.74,0,0,0-5.73,5.73V555a5.73,5.73,0,0,0,5.73,5.73h23.32a5.45,5.45,0,0,0,5.45-5.45V522.59A5.73,5.73,0,0,0,608.84,516.86Zm4.29,36.29a5.72,5.72,0,0,1-5.73,5.73H587.24a5.73,5.73,0,0,1-5.73-5.73V524.42a5.74,5.74,0,0,1,5.73-5.73H607.4a5.73,5.73,0,0,1,5.73,5.73Z"/><path class="cls-4" d="M608.83,528.92v19.71a4.82,4.82,0,0,1-4.82,4.82h-13.4a4.82,4.82,0,0,1-4.82-4.82V528.92a4.78,4.78,0,0,1,4.78-4.78h13.48A4.78,4.78,0,0,1,608.83,528.92Z"/><path class="cls-4" d="M658.94,516.85h-23a5.74,5.74,0,0,0-5.73,5.73V555a5.74,5.74,0,0,0,5.73,5.73h23.32a5.45,5.45,0,0,0,5.45-5.45V522.58A5.74,5.74,0,0,0,658.94,516.85Zm4.29,36.3a5.74,5.74,0,0,1-5.73,5.73H637.34a5.74,5.74,0,0,1-5.73-5.73V524.42a5.73,5.73,0,0,1,5.73-5.73H657.5a5.73,5.73,0,0,1,5.73,5.73Z"/><path class="cls-4" d="M658.93,528.91v19.71a4.82,4.82,0,0,1-4.82,4.82h-13.4a4.82,4.82,0,0,1-4.83-4.82V528.91a4.79,4.79,0,0,1,4.79-4.78h13.48A4.78,4.78,0,0,1,658.93,528.91Z"/><path class="cls-4" d="M537.39,318.93,515,294.64a13.53,13.53,0,0,0-19.88,0l-22.42,24.29a13.52,13.52,0,0,0-3.58,9.17v28.74a13.52,13.52,0,0,0,13.52,13.53h44.84A13.53,13.53,0,0,0,541,356.84V328.1A13.49,13.49,0,0,0,537.39,318.93Zm-1.08,34.46a11.77,11.77,0,0,1-11.77,11.77h-39a11.77,11.77,0,0,1-11.77-11.77v-25a11.74,11.74,0,0,1,3.12-8l19.51-21.13a11.76,11.76,0,0,1,17.29,0l19.51,21.13a11.78,11.78,0,0,1,3.12,8Z"/><path class="cls-4" d="M498.39,306.47l-15,16.24a9,9,0,0,0-2.39,6.13v19.21a9,9,0,0,0,9,9h30a9,9,0,0,0,9-9V328.84a9.05,9.05,0,0,0-2.4-6.13l-15-16.24A9,9,0,0,0,498.39,306.47Z"/><path class="cls-4" d="M264.88,195.41l6.13,6.14a290,290,0,0,0-49.17,49.18l-6.14-6.14a297.94,297.94,0,0,1,49.18-49.18m.32-5.33a302.19,302.19,0,0,0-54.83,54.84l11.85,11.85a286.23,286.23,0,0,1,54.84-54.83L265.2,190.08Z"/><path class="cls-4" d="M744.91,186.38a297.51,297.51,0,0,1,50.43,50.25l-6.13,6.14a291.87,291.87,0,0,0-50.44-50.26l6.14-6.13m-.34-5.32-11.86,11.85a287.64,287.64,0,0,1,56.1,55.91L800.67,237a301.53,301.53,0,0,0-56.1-55.91Z"/><path class="cls-4" d="M188.84,223.39l86.74,86.74L307.1,341.6,328,362.53a211.82,211.82,0,0,0-27.13,58H265.6V659.9l-2.75,2.76L223.43,702l-34.59,34.58a402.19,402.19,0,0,1,0-513.22M126.4,560.79A17,17,0,0,0,143.27,544a190.64,190.64,0,0,1,0-113.42,16.88,16.88,0,1,0-33.75,0,376.11,376.11,0,0,0,0,113.42,16.94,16.94,0,0,0,16.88,16.83m62.16-343.34-2.81,3.4a406.56,406.56,0,0,0,0,518.31l2.81,3.4,3.11-3.12,34.59-34.59,39.41-39.36,2.76-2.76,1.17-1.17v-237h34.24l.84-2.86a208,208,0,0,1,26.62-56.94l1.83-2.72-2.32-2.33-20.88-20.92L278.41,307.3l-86.74-86.73-3.11-3.12ZM126.4,556.79A12.86,12.86,0,0,1,113.52,544v-.3l0-.3a374.47,374.47,0,0,1-4.25-56.14,370.22,370.22,0,0,1,4.25-56.08l0-.3v-.3a12.88,12.88,0,0,1,12.88-12.88A13.06,13.06,0,0,1,139.26,430a194.59,194.59,0,0,0,0,114.55,13,13,0,0,1-12.86,12.27Z"/><path class="cls-4" d="M814.22,223.39a402.22,402.22,0,0,1,0,513.22l-69.76-69.75V420.55H702.21a212.11,212.11,0,0,0-27.13-58L696,341.6l31.23-31.17,87-87m62.44,337.4A16.94,16.94,0,0,0,893.54,544a376.11,376.11,0,0,0,0-113.42,16.88,16.88,0,1,0-33.76,0,191.49,191.49,0,0,1,0,113.42,16.94,16.94,0,0,0,16.88,16.83M814.5,217.45l-3.11,3.12-87,87-31.22,31.17L672.25,359.7,669.93,362l1.83,2.72a208.34,208.34,0,0,1,26.62,56.94l.84,2.86h41.24v244l1.17,1.17,69.76,69.75,3.11,3.12,2.8-3.4a406.52,406.52,0,0,0,0-518.31l-2.8-3.4ZM863.8,430a12.88,12.88,0,0,1,25.74.57v.3l.05.29a372.58,372.58,0,0,1,0,112.23l-.05.3v.3a12.88,12.88,0,0,1-25.74.57,195.71,195.71,0,0,0,0-114.56Z"/><path class="cls-4" d="M500.38,76.12A403.4,403.4,0,0,1,757,168.62L722.4,203.21l-51.33,51.32-32.29,32.34-21,20.88a212.58,212.58,0,0,0-34-18.38l10.25-10.25-89-89-89,89,7.42,7.42a212.67,212.67,0,0,0-40.51,21.21L362,286.87l-43.42-43.42-40.2-40.24-34.63-34.59a403.39,403.39,0,0,1,256.66-92.5m0-4h0a407.52,407.52,0,0,0-259.2,93.41l-3.4,2.81,3.12,3.11L275.53,206l40.19,40.24,43.42,43.42,20.94,20.88,2.32,2.32,2.73-1.82a208.49,208.49,0,0,1,39.75-20.82l5.68-2.23-4.32-4.32-4.59-4.59L505,195.74l83.39,83.38L581,286.54l-4.16,4.17,5.4,2.33a208.11,208.11,0,0,1,33.34,18l2.73,1.82,2.32-2.31,21-20.88,32.31-32.35L725.23,206l34.58-34.59,3.12-3.12-3.4-2.8A407.46,407.46,0,0,0,500.39,72.12Z"/></g></svg>